<svg width="250" height="250" viewBox="0 0 250 250" fill="none" xmlns="http://www.w3.org/2000/svg">
<circle cx="125" cy="125" r="125" fill="#0A2A5E"/>
<path d="M178.571 107.857C178.571 137.444 154.587 161.429 125 161.429C95.4133 161.429 71.4286 137.444 71.4286 107.857C71.4286 78.2705 95.4133 54.2857 125 54.2857C154.587 54.2857 178.571 78.2705 178.571 107.857Z" fill="#FFCC00"/>
<circle cx="125.357" cy="190.357" r="6.07143" fill="#F0F0F0"/>
<path d="M100 155H150V170.714C150 181.76 141.046 190.714 130 190.714H120C108.954 190.714 100 181.76 100 170.714V155Z" fill="#9FA8DA"/>
<rect x="100" y="160" width="50" height="7.14286" fill="#5C6BC0"/>
<path fill-rule="evenodd" clip-rule="evenodd" d="M139.286 104.321C139.286 103.003 138.916 101.698 138.198 100.481C137.48 99.2632 136.428 98.1569 135.102 97.225C133.775 96.2931 132.2 95.5539 130.467 95.0496C128.734 94.5453 126.876 94.2857 125 94.2857C123.124 94.2857 121.266 94.5453 119.533 95.0496C117.8 95.5539 116.225 96.2931 114.898 97.225C113.572 98.1569 112.52 99.2632 111.802 100.481C111.084 101.698 110.714 103.003 110.714 104.321V155H117.143V104.321L117.178 104.321C117.178 103.6 117.381 102.885 117.774 102.218C118.167 101.552 118.743 100.946 119.469 100.436C120.196 99.9257 121.058 99.521 122.007 99.2449C122.956 98.9688 123.973 98.8266 125 98.8266C126.027 98.8266 127.044 98.9688 127.993 99.2449C128.942 99.521 129.804 99.9257 130.531 100.436C131.257 100.946 131.833 101.552 132.226 102.218C132.619 102.885 132.822 103.6 132.822 104.321L132.857 104.321V155H139.286L139.286 104.321Z" fill="#FFF176"/>
<rect x="100" y="170.714" width="50" height="7.14286" fill="#5C6BC0"/>
</svg>
