<svg width="700" height="616" viewBox="0 0 700 616" fill="none" xmlns="http://www.w3.org/2000/svg">
<circle cx="351.947" cy="211.63" r="211.168" fill="#0A2A5E"/>
<path d="M442.448 182.67C442.448 232.652 401.929 273.171 351.947 273.171C301.965 273.171 261.447 232.652 261.447 182.67C261.447 132.688 301.965 92.1692 351.947 92.1692C401.929 92.1692 442.448 132.688 442.448 182.67Z" fill="#FFCC00"/>
<circle cx="352.551" cy="322.041" r="10.2567" fill="#F0F0F0"/>
<path d="M309.713 262.31H394.181V280.411C394.181 303.736 375.272 322.644 351.947 322.644V322.644C328.622 322.644 309.713 303.736 309.713 280.411V262.31Z" fill="#9FA8DA"/>
<rect x="309.713" y="270.757" width="84.4673" height="12.0668" fill="#5C6BC0"/>
<path fill-rule="evenodd" clip-rule="evenodd" d="M376.081 176.696C376.081 174.47 375.456 172.265 374.244 170.208C373.031 168.152 371.253 166.283 369.012 164.708C366.771 163.134 364.111 161.885 361.183 161.033C358.255 160.181 355.116 159.743 351.947 159.743C348.778 159.743 345.64 160.181 342.712 161.033C339.784 161.885 337.123 163.134 334.882 164.708C332.641 166.283 330.863 168.152 329.651 170.208C328.438 172.265 327.814 174.47 327.814 176.696H338.734C338.734 175.477 339.076 174.27 339.74 173.144C340.404 172.018 341.377 170.995 342.604 170.133C343.831 169.271 345.287 168.587 346.891 168.121C348.494 167.654 350.212 167.414 351.947 167.414C353.682 167.414 355.401 167.654 357.004 168.121C358.607 168.587 360.063 169.271 361.29 170.133C362.517 170.995 363.491 172.018 364.155 173.144C364.819 174.27 365.16 175.477 365.16 176.696H376.081ZM327.814 176.696H338.674V262.31H327.814V176.696ZM376.081 176.696H365.221V262.31H376.081V176.696Z" fill="#FFF176"/>
<rect x="309.713" y="288.857" width="84.4673" height="12.0668" fill="#5C6BC0"/>
<path d="M60.5868 552.819H75.4188L81.7224 560.865L89.9913 570.358L102.71 586.043H86.0979L77.1987 575.401L71.9333 567.836L60.5868 552.819ZM103.229 542.14C103.229 550.495 101.622 557.577 98.4085 563.387C95.1949 569.196 90.8442 573.608 85.3563 576.624C79.8932 579.64 73.7626 581.148 66.9646 581.148C60.1418 581.148 53.9989 579.628 48.5357 576.587C43.0726 573.547 38.7342 569.134 35.5206 563.35C32.3317 557.54 30.7373 550.47 30.7373 542.14C30.7373 533.784 32.3317 526.702 35.5206 520.893C38.7342 515.084 43.0726 510.671 48.5357 507.655C53.9989 504.639 60.1418 503.131 66.9646 503.131C73.7626 503.131 79.8932 504.639 85.3563 507.655C90.8442 510.671 95.1949 515.084 98.4085 520.893C101.622 526.702 103.229 533.784 103.229 542.14ZM84.4664 542.14C84.4664 537.196 83.7619 533.018 82.3528 529.607C80.9685 526.195 78.9662 523.612 76.3458 521.857C73.7502 520.102 70.6231 519.224 66.9646 519.224C63.3307 519.224 60.2036 520.102 57.5833 521.857C54.963 523.612 52.9483 526.195 51.5392 529.607C50.1549 533.018 49.4627 537.196 49.4627 542.14C49.4627 547.084 50.1549 551.262 51.5392 554.673C52.9483 558.084 54.963 560.668 57.5833 562.423C60.2036 564.178 63.3307 565.055 66.9646 565.055C70.6231 565.055 73.7502 564.178 76.3458 562.423C78.9662 560.668 80.9685 558.084 82.3528 554.673C83.7619 551.262 84.4664 547.084 84.4664 542.14ZM165.21 504.17H183.528V553.153C183.528 558.814 182.181 563.745 179.486 567.948C176.792 572.125 173.034 575.364 168.214 577.663C163.393 579.937 157.794 581.074 151.416 581.074C144.964 581.074 139.328 579.937 134.508 577.663C129.687 575.364 125.942 572.125 123.273 567.948C120.603 563.745 119.268 558.814 119.268 553.153V504.17H137.623V551.558C137.623 554.178 138.191 556.515 139.328 558.566C140.49 560.618 142.109 562.225 144.186 563.387C146.262 564.549 148.672 565.129 151.416 565.129C154.16 565.129 156.558 564.549 158.61 563.387C160.686 562.225 162.306 560.618 163.467 558.566C164.629 556.515 165.21 554.178 165.21 551.558V504.17ZM218.607 504.17V580.11H200.253V504.17H218.607ZM235.091 580.11V569.653L271.986 519.076H235.129V504.17H295.198V514.626L258.304 565.204H295.161V580.11H235.091ZM311.645 504.17H334.375L353.657 551.187H354.547L373.829 504.17H396.559V580.11H378.686V533.463H378.056L359.812 579.628H348.392L330.148 533.203H329.518V580.11H311.645V504.17ZM413.228 580.11V504.17H466.179V519.076H431.583V534.65H463.472V549.593H431.583V565.204H466.179V580.11H413.228ZM547.525 504.17V580.11H531.951L501.731 536.281H501.249V580.11H482.894V504.17H498.69L528.577 547.924H529.207V504.17H547.525ZM582.642 504.17V580.11H564.287V504.17H582.642ZM615.812 580.11H596.085L621.707 504.17H646.143L671.766 580.11H652.039L634.203 523.303H633.61L615.812 580.11ZM613.179 550.223H654.412V564.165H613.179V550.223Z" fill="#0A2A5E"/>
</svg>
