<svg width="479" height="126" viewBox="0 0 479 126" fill="none" xmlns="http://www.w3.org/2000/svg">
<circle cx="62.2078" cy="63" r="62.2078" fill="#0A2A5E"/>
<path d="M88.8688 54.4685C88.8688 69.1927 76.9325 81.129 62.2083 81.129C47.4842 81.129 35.5479 69.1927 35.5479 54.4685C35.5479 39.7443 47.4842 27.808 62.2083 27.808C76.9325 27.808 88.8688 39.7443 88.8688 54.4685Z" fill="#FFCC00"/>
<circle cx="62.3863" cy="95.5258" r="3.02152" fill="#F0F0F0"/>
<path d="M49.7661 77.9301H74.6492V83.2621C74.6492 90.1334 69.079 95.7037 62.2077 95.7037V95.7037C55.3364 95.7037 49.7661 90.1334 49.7661 83.2621V77.9301Z" fill="#9FA8DA"/>
<rect x="49.7661" y="80.4181" width="24.8831" height="3.55473" fill="#5C6BC0"/>
<path fill-rule="evenodd" clip-rule="evenodd" d="M69.3176 52.7088C69.3176 52.053 69.1337 51.4036 68.7765 50.7976C68.4192 50.1917 67.8955 49.6411 67.2353 49.1774C66.5752 48.7136 65.7914 48.3457 64.9289 48.0948C64.0663 47.8438 63.1418 47.7146 62.2082 47.7146C61.2746 47.7146 60.3501 47.8438 59.4875 48.0948C58.6249 48.3457 57.8412 48.7136 57.181 49.1774C56.5209 49.6411 55.9972 50.1917 55.6399 50.7976C55.2826 51.4036 55.0987 52.053 55.0987 52.7088H58.3157C58.3157 52.3498 58.4164 51.9942 58.612 51.6624C58.8076 51.3307 59.0943 51.0293 59.4558 50.7753C59.8172 50.5214 60.2463 50.32 60.7186 50.1826C61.1908 50.0452 61.697 49.9745 62.2082 49.9745C62.7193 49.9745 63.2255 50.0452 63.6978 50.1826C64.17 50.32 64.5991 50.5214 64.9606 50.7753C65.322 51.0292 65.6088 51.3307 65.8044 51.6624C66 51.9942 66.1007 52.3498 66.1007 52.7088H69.3176ZM55.0986 52.709H58.2979V77.9299H55.0986V52.709ZM69.3178 52.709H66.1186V77.9299H69.3178V52.709Z" fill="#FFF176"/>
<rect x="49.7661" y="85.7502" width="24.8831" height="3.55473" fill="#5C6BC0"/>
<path d="M203.496 67.8059H210.124L212.94 71.4011L216.635 75.6426L222.318 82.6509H214.895L210.919 77.8958L208.566 74.516L203.496 67.8059ZM222.55 63.0342C222.55 66.7676 221.832 69.9321 220.396 72.5278C218.96 75.1234 217.016 77.0951 214.564 78.4426C212.123 79.7901 209.384 80.4639 206.346 80.4639C203.298 80.4639 200.553 79.7846 198.112 78.426C195.671 77.0674 193.732 75.0958 192.296 72.5112C190.871 69.9155 190.159 66.7565 190.159 63.0342C190.159 59.3009 190.871 56.1364 192.296 53.5407C193.732 50.945 195.671 48.9734 198.112 47.6259C200.553 46.2783 203.298 45.6046 206.346 45.6046C209.384 45.6046 212.123 46.2783 214.564 47.6259C217.016 48.9734 218.96 50.945 220.396 53.5407C221.832 56.1364 222.55 59.3009 222.55 63.0342ZM214.166 63.0342C214.166 60.8252 213.851 58.9585 213.222 57.4342C212.603 55.9099 211.709 54.7557 210.538 53.9715C209.378 53.1872 207.981 52.7951 206.346 52.7951C204.722 52.7951 203.325 53.1872 202.154 53.9715C200.984 54.7557 200.083 55.9099 199.454 57.4342C198.835 58.9585 198.526 60.8252 198.526 63.0342C198.526 65.2433 198.835 67.11 199.454 68.6343C200.083 70.1585 200.984 71.3128 202.154 72.097C203.325 72.8812 204.722 73.2733 206.346 73.2733C207.981 73.2733 209.378 72.8812 210.538 72.097C211.709 71.3128 212.603 70.1585 213.222 68.6343C213.851 67.11 214.166 65.2433 214.166 63.0342ZM250.244 46.0685H258.429V67.955C258.429 70.4844 257.827 72.6879 256.623 74.5657C255.419 76.4323 253.74 77.8793 251.586 78.9065C249.432 79.9227 246.931 80.4308 244.081 80.4308C241.198 80.4308 238.68 79.9227 236.526 78.9065C234.372 77.8793 232.699 76.4323 231.506 74.5657C230.313 72.6879 229.716 70.4844 229.716 67.955V46.0685H237.917V67.2425C237.917 68.4134 238.172 69.4571 238.68 70.3739C239.199 71.2907 239.922 72.0086 240.85 72.5278C241.778 73.0469 242.855 73.3065 244.081 73.3065C245.307 73.3065 246.378 73.0469 247.295 72.5278C248.223 72.0086 248.946 71.2907 249.465 70.3739C249.985 69.4571 250.244 68.4134 250.244 67.2425V46.0685ZM274.103 46.0685V80H265.902V46.0685H274.103ZM281.468 80V75.3278L297.954 52.7289H281.485V46.0685H308.325V50.7407L291.84 73.3396H308.309V80H281.468ZM315.674 46.0685H325.83L334.446 67.0769H334.844L343.459 46.0685H353.615V80H345.629V59.1573H345.348L337.196 79.7846H332.093L323.942 59.0413H323.66V80H315.674V46.0685ZM361.063 80V46.0685H384.723V52.7289H369.265V59.6875H383.513V66.3644H369.265V73.3396H384.723V80H361.063ZM421.07 46.0685V80H414.111L400.608 60.4165H400.393V80H392.192V46.0685H399.25L412.604 65.6189H412.885V46.0685H421.07ZM436.761 46.0685V80H428.559V46.0685H436.761ZM451.582 80H442.767L454.216 46.0685H465.134L476.583 80H467.769L459.799 54.6176H459.534L451.582 80ZM450.405 66.6461H468.829V72.8757H450.405V66.6461Z" fill="#0A2A5E"/>
</svg>
