<svg width="350" height="465" viewBox="0 0 350 465" fill="none" xmlns="http://www.w3.org/2000/svg">
<path d="M61.064 291.915H290.426V464.681L175.745 367.356L61.064 464.681V291.915Z" fill="#0A2A5E"/>
<path d="M113.191 315.745H238.298V409.981L175.745 356.894L113.191 409.981V315.745Z" fill="#F44336"/>
<circle cx="175" cy="175" r="172.5" fill="#FFCC00" stroke="#0A2A5E" stroke-width="5"/>
<path d="M106.649 205L89.7168 146.818H105.257L114.035 184.943H114.518L124.546 146.818H137.217L147.245 185.028H147.728L156.535 146.818H172.046L155.143 205H141.592L131.109 169.716H130.654L120.171 205H106.649ZM195.919 146.818V205H181.856V146.818H195.919ZM258.264 146.818V205H246.332L223.178 171.42H222.809V205H208.747V146.818H220.849L243.747 180.341H244.23V146.818H258.264Z" fill="#0A2A5E"/>
</svg>
